# xmcd CD database file
# Copyright (C) 1993-1998 Ti Kan
# 
# Track frame offsets:
# 182
# 16397
# 33052
# 64225
# 94357
# 109132
# 
# Disc length: 1748 seconds
# 
# Revision: 0
# Processed by: cddbd v1.4b41PL1 Copyright (c) Steve Scherf et al.
# Submitted via: SuperSonic v4.0
# 
DISCID=4706d206
DTITLE=Gregg Wright's Left Hook - Round one
DYEAR=1900
DGENRE=
TTITLE0=Drivin' to New Orleans
TTITLE1=Heidi Ann
TTITLE2=Between Heaven and hell
TTITLE3=or die trying
TTITLE4=Saturday night
TTITLE5=Crank it up!!!
EXTD=
EXTT0=
EXTT1=
EXTT2=
EXTT3=
EXTT4=
EXTT5=
PLAYORDER=
